<?xml version="1.0" encoding="UTF-8"?>
<svg id="Layer_2" data-name="Layer 2" xmlns="http://www.w3.org/2000/svg" viewBox="0 0 109.5 97.94">
  <g id="OBJECTS">
    <g>
      <path d="M108.1,97.94H0V1.4C0,.62.62,0,1.4,0s1.4.62,1.4,1.4v93.75h105.31c.77,0,1.4.62,1.4,1.4s-.62,1.4-1.4,1.4Z"/>
      <path d="M108.1,89.62H9.34V1.4c0-.77.62-1.4,1.4-1.4s1.4.62,1.4,1.4v85.43h95.97c.77,0,1.4.62,1.4,1.4s-.62,1.4-1.4,1.4Z"/>
      <path d="M108.1,81.29H18.68V1.4c0-.77.62-1.4,1.4-1.4s1.4.62,1.4,1.4v77.1h86.63c.77,0,1.4.62,1.4,1.4s-.62,1.4-1.4,1.4Z"/>
      <path d="M108.1,72.96H28.02V1.4c0-.77.62-1.4,1.4-1.4s1.4.62,1.4,1.4v68.77h77.29c.77,0,1.4.62,1.4,1.4s-.62,1.4-1.4,1.4Z"/>
      <path d="M108.1,64.63H37.36V1.4c0-.77.62-1.4,1.4-1.4s1.4.62,1.4,1.4v60.44h67.95c.77,0,1.4.62,1.4,1.4s-.62,1.4-1.4,1.4Z"/>
    </g>
  </g>
</svg>