<?xml version="1.0" encoding="UTF-8"?>
<svg id="Layer_2" data-name="Layer 2" xmlns="http://www.w3.org/2000/svg" viewBox="0 0 148.41 173.7">
  <defs>
    <style>
      .cls-1 {
        fill: #fff5c5;
      }
    </style>
  </defs>
  <g id="BACKGROUND">
    <path class="cls-1" d="M91,102.68c8.23-4.29,17.27-7.23,25.34-11.76,17.98-10.1,30.19-28.29,31.88-47.5.74-8.49-.58-17.4-5.63-24.56C134.27,7.07,117.89,2.44,102.63.79c-26.55-2.86-55.97,1.69-74.28,19.46-7.81,7.57-13.08,17.03-17.23,26.71-14.89,34.72-15.88,75.51,3.55,108.3,3.38,5.71,7.51,11.29,13.48,14.8,23.75,13.98,22.27-15.93,27.49-28.85,6.47-16.02,19.08-30.03,35.36-38.53Z"/>
  </g>
</svg>