<?xml version="1.0" encoding="UTF-8"?>
<svg id="Layer_2" data-name="Layer 2" xmlns="http://www.w3.org/2000/svg" viewBox="0 0 272.46 206.55">
  <defs>
    <style>
      .cls-1 {
        fill: #fff5c5;
      }
    </style>
  </defs>
  <g id="BACKGROUND">
    <path class="cls-1" d="M107.66,171.47c27.49-1.83,55.29.36,82.56-3.31,27.27-3.68,55.19-14.5,69.84-35.8,6.47-9.41,9.97-20.33,11.53-31.35,4.53-32.08-8.71-66.93-37.39-85.94C214.18,1.8,187.81-2.98,163.64,1.82c-24.17,4.8-45.83,18.96-59.06,38.03-16.11,23.22-20.32,53.17-41.46,72.75-10.21,9.46-23.46,15.56-35.47,23.05-12.01,7.49-23.46,17.31-26.86,30.21-5.35,20.32,17.68,49.82,42.6,37.98,8.85-4.2,12.82-14.29,20.62-19.96,12.3-8.95,28.39-11.39,43.66-12.41Z"/>
  </g>
</svg>