<?xml version="1.0" encoding="UTF-8"?>
<svg id="Layer_2" data-name="Layer 2" xmlns="http://www.w3.org/2000/svg" viewBox="0 0 143.66 338.21">
  <defs>
    <style>
      .cls-1 {
        fill: #0b0d0e;
      }

      .cls-2 {
        fill: #fc0;
      }

      .cls-3 {
        fill: #fdc100;
      }

      .cls-4 {
        fill: #10100f;
      }

      .cls-5 {
        fill: #121116;
      }

      .cls-6 {
        stroke: #10100f;
        stroke-width: 4px;
      }

      .cls-6, .cls-7 {
        fill: none;
        stroke-miterlimit: 10;
      }

      .cls-8 {
        fill: #fad5c3;
      }

      .cls-9 {
        fill: #fbfcfe;
      }

      .cls-7 {
        stroke: #0a0b0d;
      }

      .cls-10 {
        fill: #fff8e1;
      }

      .cls-11 {
        fill: #1b1013;
      }
    </style>
  </defs>
  <g id="OBJECTS">
    <g>
      <path class="cls-10" d="M100.11,261.82l-4.49,58.97,12.75,13.33-8.54,1.57c-1.93.36-3.88-.41-5.05-1.98-3.14-4.24-9.05-12.43-9.23-14.33,0,0-.16-46.54-.4-57.55h14.96Z"/>
      <path d="M84.94,338.21h2.66v-10.77l9.27,10.77h21.45s-1.14-4.35-6.15-4.64c0,0-4.79-.13-9.77-.23-3.99-.08-8.74-7.06-10.84-10.89-.42-.77-3.58-5.79-6.63-5.79v21.55Z"/>
      <path class="cls-10" d="M36.15,261.82l-13.51,55.63-12.53,16.6,8.67,1.6c1.96.36,3.94-.42,5.13-2.01,3.19-4.3,9.2-12.62,9.38-14.56,0,0,12.29-45.06,16.07-57.26h-13.21Z"/>
      <path d="M33.9,338.21h-2.7v-10.94l-9.41,10.94H0s1.15-4.42,6.24-4.71c0,0,4.86-.13,9.92-.23,4.06-.09,8.87-7.17,11.01-11.06.43-.78,3.64-5.88,6.73-5.88v21.88Z"/>
      <path class="cls-11" d="M26,299.16l14.49.4,47.5-145.58-4.2,146.77,14.49.4s11.16-75.87,15.58-123.08c4.41-47.22-10.82-59.31-10.82-59.31l-37.69-1.03-39.34,181.44Z"/>
      <line class="cls-7" x1="82.47" y1="150.86" x2="87.98" y2="153.97"/>
      <path class="cls-1" d="M97.67,21.72c.24,6.23-.07,12.88,3.16,18.22,2.7,4.46,7.43,7.2,11.36,10.62,3.93,3.42,7.35,8.52,5.99,13.55-15.17.36-30.35.32-45.51-.14-.91-.03-1.86-.07-2.65-.51-.69-.39-1.19-1.04-1.64-1.68-3.35-4.79-5.37-11.1-3.17-16.52.76-1.87,1.98-3.52,2.76-5.38,2.46-5.8.39-12.39-.88-18.56-1.27-6.17-1.22-13.7,3.85-17.44,2.77-2.04,6.48-2.42,9.86-1.78,3.59.68,9.63,2.3,12.33,4.84,3.7,3.49,4.36,10.05,4.54,14.79Z"/>
      <polygon class="cls-10" points="76.1 50.28 62.03 51.83 65.34 117.72 103.03 118.75 98.78 96.88 109.55 54.4 88.22 50.52 76.1 50.28"/>
      <g>
        <path class="cls-10" d="M76.71,34.35l-.27,7.06-.09,2.44-.18,4.72-.07,1.7c.76,2.58,3.1,4.51,5.93,4.59,2.84.08,5.29-1.7,6.2-4.23v-.12s-.23-2.48-.23-2.48l-.66-7.24-.56-6.15-10.07-.31Z"/>
        <path class="cls-10" d="M76.57,37.97s4.9.05,10.27-2.61c0,0-2.11,5.23-10.39,5.69l.12-3.07Z"/>
      </g>
      <path class="cls-9" d="M71.28,60.45l-6.21,52.05c-.06.66-.18,1.42-.52,1.98,0,0-17.82,32.55-17.82,32.55-.88,1.6-2.89,2.19-4.5,1.32-1.46-.8-2.08-2.54-1.52-4.06l12.91-34.79s-.52,1.98-.52,1.98l2.66-52.36c.22-4.3,3.88-7.6,8.17-7.38,4.48.21,7.88,4.25,7.34,8.7h0Z"/>
      <path class="cls-8" d="M37.16,157.78l-5.13,7.56c-.28.42-.85.55-1.28.29h0c-.44-.26-.6-.83-.35-1.28l1.13-2.08c.63-1.16,1.56-2.13,2.71-2.79l2.93-1.7Z"/>
      <g>
        <path class="cls-10" d="M47.65,142.74c.12.48.16.95.16,1.39.02.58-.05,1.13-.16,1.61-.34,1.51-1.05,2.59-1.2,2.8-.02.02-.03.03-.03.03-.05.06-.1.14-.16.2-.49.62-.97,1.37-1,2.27,0,.42-.07.97-.2,1.61h0c-.09.35-.2.67-.34.97-.93,2-3.03,3.22-4.61,3.89-1.12.47-1.98.67-1.98.67-.74.46-1.5.95-2.24,1.47-2.1,1.46-4.12,3.1-5.61,5.1-.16.21-.32.42-.45.63-.36.52-.9.42-1.27.28-.37-.14-.46-.57-.34-.98,1.15-3.91,4.68-8.66,7.03-11.49,1.28-1.54,2.62-3.12,3.9-4.65.86-1.03,2.47-9.24,5.3-9.58l.87,1.12c.99.9.32.35,1.23,1.19l1.11,1.48Z"/>
        <path class="cls-10" d="M40.99,152.47l-1.47,8.35c-.13.73.36,1.43,1.09,1.55.67.12,1.3-.28,1.51-.9l2.65-8.05c.34-1.02-.22-2.13-1.24-2.46-1.02-.34-2.13.22-2.46,1.24-.03.09-.05.18-.07.27Z"/>
        <path class="cls-10" d="M44.9,153.15l.71-1.32c.87-1.6,1.46-3.34,1.75-5.13h0l-4.45,2.68,1.99,3.77Z"/>
      </g>
      <path class="cls-9" d="M115.18,59.32c2.93,8.4,5.38,16.7,7.57,25.29,2.22,8.96,4.14,17.7,4.63,27.14-2.34,14.42-5.41,30.03-8.35,44.33-.96,4.14-7.06,3.33-6.89-.93.85-14.28,2.24-29.88,3.52-44.15,0,0-.04,1.24-.04,1.24-.49-3.77-1.46-7.79-2.53-11.77-3.35-12.08-7.77-24.14-12.26-35.84-3.3-9.71,10.5-14.86,14.35-5.3h0Z"/>
      <g>
        <path class="cls-6" d="M122.56,174.46c-.76,6.09-6.32,10.41-12.41,9.65-6.09-.76-10.41-6.32-9.65-12.41.76-6.09,6.32-10.41,12.41-9.65,6.09.76,10.41,6.32,9.65,12.41Z"/>
        <path class="cls-4" d="M143.61,184.73l-.44,3.56-29.25,7.43c-3.02.77-6.21.39-8.97-1.06l-27.83-14.63.44-3.56c.48-3.84,3.98-6.57,7.81-6.09l52.17,6.53c3.83.48,6.55,3.98,6.07,7.83Z"/>
        <path class="cls-3" d="M143.17,188.24l-3.28,26.23c-.48,3.83-3.97,6.55-7.8,6.07l-52.17-6.53c-3.83-.48-6.55-3.97-6.07-7.8l3.28-26.23,28.22,14.8c2.51,1.31,5.41,1.66,8.16.96l29.66-7.5Z"/>
        <path class="cls-1" d="M110.74,203.24l-1.87,2.23c-.39.46-1.13.37-1.39-.17l-1.26-2.62,1.38-11.06c.07-.57.59-.97,1.16-.9l2.47.31c.57.07.97.59.9,1.16l-1.38,11.06Z"/>
      </g>
      <g>
        <path class="cls-10" d="M109.64,168.88l-.17-11.18c0-.5-.42-.89-.91-.89-.45,0-.82.34-.88.78l-1.55,11.07c-.13.96.54,1.86,1.5,1.99.96.13,1.86-.54,1.99-1.5.01-.09.02-.19.02-.27Z"/>
        <path class="cls-10" d="M112.9,169.33l-.27-11.18c-.01-.5-.42-.89-.92-.88-.45.01-.82.35-.87.78l-1.45,11.09c-.13.97.55,1.85,1.52,1.98.97.13,1.85-.55,1.98-1.52.01-.09.02-.18.01-.27Z"/>
        <path class="cls-10" d="M116.17,169.67l-.31-11.18c-.01-.5-.43-.89-.93-.88-.45.01-.81.35-.87.79l-1.41,11.09c-.12.97.56,1.85,1.53,1.97.97.12,1.85-.56,1.97-1.53.01-.09.02-.18.01-.27Z"/>
        <path class="cls-10" d="M119.41,169.41l-.28-12.35c-.01-.5-.42-.89-.92-.88-.45.01-.82.36-.87.8l-1.44,12.27c-.11.97.58,1.84,1.55,1.96.97.11,1.84-.58,1.96-1.55,0-.08.01-.17.01-.25Z"/>
        <path class="cls-10" d="M112.5,151.31l-6.03,6.33s.24,9.13.77,9c.52-.13,11.62,3.64,11.62,3.64l.88-17.65-7.25-1.33Z"/>
        <path class="cls-10" d="M109.06,154.95l-6.51,6.8c-.57.59-.55,1.54.05,2.1.54.52,1.37.55,1.95.1l7.41-5.8c.94-.74,1.11-2.1.37-3.04-.74-.94-2.1-1.11-3.04-.37-.08.06-.16.14-.23.21Z"/>
      </g>
      <g>
        <path class="cls-2" d="M76.1,50.28s1.15,13.26,6.37,26.82c0,0,4.52-12.03,5.75-26.58l24.73,3.77s12.98,18.19,15.33,56.53l-6.79,38.63-10.35-2.8,3.61-34.38s-6.55-24.92-9.94-33.79c0,0,9.1,38.34,1.3,39.24l-3.08,1.03-37.69-1.03s-3.82-1.63-4.35-13.65c-.52-12.03,9.33-53.15,9.33-53.15l5.78-.64Z"/>
        <path class="cls-2" d="M42.75,137.27l7.53,4.43,18.9-35.39,1.14-55.4-8.58.87c-3.53.36-6.26,3.25-6.41,6.8l-1.71,40.21-10.88,38.48Z"/>
        <polygon class="cls-2" points="76.22 47.3 67.04 52.4 76.07 51.56 76.22 47.3"/>
        <polygon class="cls-2" points="88.22 50.52 88.09 47.3 96.47 52.02 88.22 50.52"/>
        <path class="cls-2" d="M83.26,82.2c0,.44-.35.79-.79.79s-.79-.35-.79-.79.35-.79.79-.79.79.35.79.79Z"/>
        <path class="cls-2" d="M83.26,90.05c0,.44-.35.79-.79.79s-.79-.35-.79-.79.35-.79.79-.79.79.35.79.79Z"/>
        <path class="cls-2" d="M83.26,97.89c0,.44-.35.79-.79.79s-.79-.35-.79-.79.35-.79.79-.79.79.35.79.79Z"/>
      </g>
      <g>
        <g>
          <path class="cls-10" d="M82.59.43c-6.51-.27-11.88,3.56-14.12,8.89,0,0,0,0,0,0,0,0,0,0,0,0-.15.22-2.47,3.79-.86,17.39.1.88.15,1.78.22,2.67.02.2.04.39.06.59.8,5.88,6.23,10,12.12,9.2,2.45-.33,4.6-1.47,6.21-3.11,0,0,.07-.08.2-.22.24-.25.48-.53.68-.82.06-.08.13-.16.2-.25,2.8-3.44,10.01-13.07,9.09-20.08h0c0-.25-.01-.49-.03-.73-.47-7.29-6.46-13.24-13.77-13.54Z"/>
          <g>
            <path class="cls-8" d="M75.95,26.96c-.22-.12-.4-.31-.51-.55-.15-.32-.16-.69-.03-1.02l1.53-3.63c.07-.16.25-.24.41-.17.17.07.24.25.17.41l-1.53,3.63c-.07.16-.06.34.01.5.08.16.21.27.38.32l1.35.38c.17.05.27.22.22.39-.05.17-.22.26-.39.22l-1.35-.39c-.09-.03-.18-.06-.27-.11Z"/>
            <g>
              <path class="cls-5" d="M73.13,20.3c-.18.79-.96,1.28-1.75,1.1-.79-.18-1.28-.96-1.1-1.75.18-.79.96-1.28,1.75-1.1.79.18,1.28.96,1.1,1.75Z"/>
              <path class="cls-5" d="M72.85,20.6c0-.59-.17-1.19-.58-1.41-.41-.26-.9-.18-1.45-.05-.54.12-1.14.32-1.83.23-.36-.05-.65-.23-.9-.4-.25-.19-.49-.43-.56-.74.21.22.47.33.73.42.27.09.54.16.77.13.5-.04,1.03-.25,1.64-.37.58-.15,1.39-.13,1.93.37.27.25.41.6.43.92.03.32-.05.63-.17.91Z"/>
            </g>
            <path class="cls-1" d="M67.12,16.82c1.03-.77,2.25-1.28,3.55-1.53.64-.13,1.33-.25,2-.09.66.14,1.29.47,1.77.95.02.02.02.06,0,.08,0,0-.02.01-.04.02h0c-.69.03-1.27-.05-1.86-.04-.58,0-1.16-.15-1.77-.11-1.2.04-2.43.33-3.58.81-.03.01-.06,0-.07-.02-.01-.02,0-.05.01-.06Z"/>
            <g>
              <path class="cls-5" d="M81.04,21.18c-.18.79.32,1.57,1.1,1.75.79.18,1.57-.32,1.75-1.1.18-.79-.32-1.57-1.1-1.75-.79-.18-1.57.32-1.75,1.1Z"/>
              <path class="cls-5" d="M81.16,21.56c0-.3.07-.61.23-.89.15-.28.43-.54.78-.64.7-.22,1.45.12,1.9.5.49.37.88.79,1.32,1.04.2.12.47.17.75.21.27.03.56.04.84-.06-.2.25-.52.36-.83.42-.3.05-.64.08-.99-.03-.66-.22-1.11-.66-1.55-1-.44-.35-.84-.63-1.33-.58-.47.03-.88.49-1.13,1.03Z"/>
            </g>
            <path class="cls-1" d="M88,20.41c-.88-.89-1.9-1.64-2.98-2.14-.55-.27-1.14-.36-1.67-.59-.55-.24-1.11-.39-1.73-.69h0s-.04-.05-.03-.07c0-.01.02-.02.03-.03.63-.26,1.34-.32,2-.19.68.11,1.26.49,1.81.86,1.1.73,2.02,1.68,2.67,2.79.01.02,0,.06-.02.07-.02.01-.05,0-.06-.01Z"/>
            <path class="cls-8" d="M76.24,33.06c-.06,0-.1,0-.12-.01-.24-.03-.4-.24-.38-.48.03-.24.21-.41.48-.38.02,0,2.96.31,5.18-1.68.18-.16.45-.15.61.03.16.18.15.45-.03.61-2.27,2.04-5.12,1.95-5.74,1.91Z"/>
          </g>
        </g>
        <path class="cls-1" d="M80.54,0c8.42-.04,15.38,5.26,16.39,14.48,1.01,9.22-6.12,15.56-6.12,15.56,1.16-2.65.74-5.42-.25-8.14-.99-2.72-3.05-5.03-5.64-6.32-1.54-.77-3.33-1.24-4.43-2.56-1.23-1.48-1.25-3.59-1.17-5.51-1.03,1.98-2.81,3.68-4.91,4.43-2.41.87-6.42,2.1-8.22,3.92,0,0,.68-7.6,4.54-11.55C74.61.36,80.54,0,80.54,0Z"/>
        <path class="cls-10" d="M89.63,22.56s.14-3.21,3.13-2.65c2.99.56,1.87,8.46-4.32,7.51l1.19-4.86Z"/>
      </g>
    </g>
  </g>
</svg>